<?xml version="1.0" encoding="utf-8"?>
<!-- Generator: Adobe Illustrator 22.0.1, SVG Export Plug-In . SVG Version: 6.00 Build 0)  -->
<svg version="1.1" id="Layer_1" xmlns="http://www.w3.org/2000/svg" xmlns:xlink="http://www.w3.org/1999/xlink" x="0px" y="0px"
	 viewBox="0 0 1197.2 1076.7" style="enable-background:new 0 0 1197.2 1076.7;" xml:space="preserve">
<style type="text/css">
	.st0{fill:#85754D;}
	.st1{font-family:'Arial-Black';}
	.st2{font-size:135.21px;}
</style>
<path class="st0" d="M448.3,225.8c-33.2,50.4-72.7,97.3-85.7,163.7c20.8-15.3,36.7-28.6,56.3-36.2c5-1.9,10.6-3.1,12.7-8.9
	C445.5,306.1,452.8,266.9,448.3,225.8z M483.1,971.6c0,1.8,0.1,3.5,0.1,5.3C486.3,975.1,486.2,973.3,483.1,971.6z M522.7,337.8
	c53.5,11.8,104.5,25.2,156.8,43.3C633.6,276,416.5,7.3,371.6,0c11.9,20.3,19.1,41.6,23,63.8c14.5,81.9-4.8,158.8-37.3,233.7
	c-4.3,5.4-3.8,8.6,4.1,8.5c32.1-41.9,72-78.1,95.7-127.8c30,30.5,24.2,66.9,25.2,105c25.8-24.6,32.3-54.4,43.2-83.8
	c19.2,26.1,24.1,57.4,20.5,105.3C544.9,320.3,543,333.6,522.7,337.8z M807,696.4L807,696.4c-1.5-7.4-6.3-9.6-13.7-8.3
	c-58.2,10.4-118.1,6.5-175.9,19.8c-27,6.2-53.5,13.6-75.6,32.3c94.2-1,186.9,3.4,278.2,33.5C819.7,745.8,812.2,721.3,807,696.4z
	 M850.9,648.4c0.1-0.1,0.2-0.1,0.4-0.2c0.3-0.2,0.7-0.4,1-0.6c0.2-0.1,0.4-0.2,0.5-0.3C852.2,647.6,851.5,648,850.9,648.4z
	 M942.7,608.9c-10-15.2-14.6-11.5-23.2,1c-15.2,21.8-29.7,47.9-54.9,57c-29.2,10.6-30.9,25-21.6,48.5c3.3,8.3,4.3,17.6,6,26.4
	c1.7,8.9,6.4,12.7,16.1,11.8c56.2-4.9,111.5-0.4,171.2,16.8C1009.1,710.7,976,659.8,942.7,608.9z M1001.1,799.6
	c-127.4,22.3-256.3,29.5-385.2,35.6c-75.3,3.6-150.6,7.4-226.1,6c-70.1,4.5-140.3,3.3-210.5,2.6H27.2c9,6.1,18.2,7.7,27.3,8.4
	c195.4,16.1,391,28.1,587.2,25.4c112.1-1.6,224-5.7,333.8-30.9c34.9-8,69.1-18.4,98.8-39c13-9,24.7-19.3,29.6-38.4
	C1069.3,786,1035.4,793.5,1001.1,799.6z M384.3,838.6c1.8,0.8,3.7,1.8,5.5,2.5C388.3,839.8,386.4,838.9,384.3,838.6z"/>
<path class="st0" d="M483.2,976.9c0-1.8-0.1-3.5-0.1-5.3C486.3,973.3,486.3,975.1,483.2,976.9z"/>
<path class="st0" d="M850.9,648.4c0.5-0.3,1.2-0.7,1.9-1.2C852.2,647.6,851.5,648,850.9,648.4z M726.2,481.1
	c0.4,0.4,0.8,0.8,1.2,1.3C727,482,726.6,481.6,726.2,481.1z"/>
<path class="st0" d="M850.9,648.4c0.1-0.1,0.2-0.1,0.4-0.2c0.3-0.2,0.7-0.4,1-0.6c0.2-0.1,0.4-0.2,0.5-0.3
	C852.2,647.6,851.5,648,850.9,648.4z"/>
<path class="st0" d="M882.7,569.1c-3.5-4.6-7.2-9-11.3-13.1l-0.2-0.2c-0.1-0.1-0.3-0.2-0.5-0.5c-0.2-0.2-0.3-0.3-0.5-0.5
	c-0.1-0.1-0.2-0.2-0.2-0.2c-0.1-0.2-0.3-0.3-0.4-0.5c-0.1-0.1-0.1-0.2-0.2-0.3c-0.1-0.1-0.1-0.2-0.1-0.3s-0.1-0.2-0.1-0.3
	c-0.1-0.2-0.1-0.3-0.2-0.5c0-0.1-0.1-0.2-0.1-0.4c0-0.1,0-0.3-0.1-0.4c-0.1-1.6,0.4-3.3,1.4-4.5l25.6-2.8
	C823.1,448.4,743.1,358,656.4,274.3c-11-14-23.5-26.5-40.9-34.3c12,14.4,24,28.9,35.9,43.3c23.6,34.5,45.3,70.2,67.7,105.4
	c25.3,39.9,30.8,91.6,80.7,123.4c-6.3-1.7-12-3.2-17.3-4.7c-9.3-2.7-17.1-5.1-23.6-7.4c-17.6-6.2-25.9-11-29.3-14.9
	c-0.1-0.1-0.2-0.2-0.4-0.4l-0.6-0.7c-0.1-0.1-0.2-0.3-0.4-0.4l-0.9-1l-0.1-0.1c-0.4-0.4-0.8-0.8-1.2-1.3c-0.4-0.4-0.8-0.8-1.3-1.2
	l-1.3-1.2c-0.9-0.8-1.9-1.7-2.9-2.5l-0.3-0.2l-1.3-1l-1.5-1.1c-1.7-1.3-3.6-2.5-5.5-3.7c-0.4-0.2-0.8-0.5-1.2-0.7s-0.8-0.5-1.2-0.7
	s-0.9-0.5-1.4-0.8s-1.2-0.6-1.8-1c-10.9-5.8-20-14.5-26.4-25.1c-13-22.5-34.5-31.5-57.3-39.5c-66.2-23-99.1-8.4-121,56.9
	c-6.1,18.2-13.4,20.2-31.1,17.5c-34.9-5.3-69.5-2.3-102.1,12.7c16.2,3.2,33.3,0.8,50,14.3c-45.7-0.3-81,16.1-113.1,40.6
	c4.9,0.4,9.3-0.7,13.7-1.8c18.7-4.9,26.5-2.6,20.6,19.9c-8.3,31.9,8.8,54.9,35.5,72.4c6.3,4.1,15.8,5,18.9,14.1
	c-103.8,29-174.1,68-192.9,106.9c10.8-0.4,19.8-8.7,33.8-6.2c-19.5,18-39.6,33.1-54.9,54.7c10,2.6,16.9-1.5,24.1-3.2
	c45.3-10.6,90.1-26.1,136.1-30.8c47.2-4.8,75.1-35.6,108.9-60.6l-58,13.3c1.2-3.4,1.3-4.3,1.8-4.8c2.2-2.1,4.6-4.1,7-5.9
	c1.1-0.8,2.2-1.5,3.2-2.3c0.9-0.6,1.8-1.2,2.7-1.8l2.6-1.8c110.2-73.7,221.4-49.4,221.4-49.4c31.6,1,57.7,4.5,144.4,8l13.7,0.5
	c2.9,0.6,5.9,0.8,8.8,0.7c1.5-0.1,3-0.2,4.5-0.5l17-4.4c1.5-0.7,3-1.4,4.4-1.9c2.7-1.1,5-1.9,6.7-2.6c2.2-0.8,4-1.3,5.7-1.8
	c2.7-0.8,5.4-1.8,8-2.8c0,0,3.5-1.5,7.3-3.6h0.1c0.1-0.1,0.3-0.2,0.4-0.2c-0.1,0.1-0.2,0.1-0.4,0.2c0.6-0.4,1.3-0.8,1.9-1.2
	c-0.2,0.1-0.4,0.2-0.5,0.3c0.2-0.1,0.3-0.2,0.5-0.3h0.1c6.4-4.4,12.3-9.3,17.8-14.7c13.8-13.5,28.2-32.4,22.7-46.8
	C891.7,581.4,887.3,574.9,882.7,569.1z M594.9,452.8c37.7-6.5,72.1-2.4,95.5,33.7C650.4,498.7,623.3,473.6,594.9,452.8z"/>
<path class="st0" d="M1078.4,559.5c-5.1,37-11,73.8-27.5,113.9c-5.5-25.3-9.1-45.2-14.2-64.6c-37.3-142.4-125.4-252.5-237.6-346.5
	C717.5,193.9,626.6,139,528.6,93.9c4.1-7.3,10-3.9,14.4-3.6c114,8.7,225.3,28.5,327.9,80.5C1025,248.7,1101.5,392.4,1078.4,559.5z"
	/>
<path class="st0" d="M389.9,841.2c-1.9-0.7-3.7-1.7-5.5-2.5C386.4,838.9,388.3,839.8,389.9,841.2z"/>
<path class="st0" d="M1103.9,769.3c-4.9,19.1-16.6,29.4-29.6,38.4c-29.7,20.6-63.9,31-98.8,39c-109.8,25.1-221.7,29.3-333.8,30.9
	c-196.2,2.7-391.8-9.3-587.2-25.3c-9.2-0.8-18.3-2.3-27.3-8.4h152.2c70.2,0.7,140.4,1.9,210.5-2.6c75.5,1.5,150.8-2.4,226.1-6
	c128.9-6.1,257.8-13.4,385.2-35.7C1035.4,793.5,1069.3,786,1103.9,769.3z"/>
<path class="st0" d="M546.1,304.8c3.6-48-1.3-79.3-20.5-105.3c-10.8,29.4-17.4,59.2-43.2,83.8c-1.1-38.1,4.8-74.5-25.2-105
	c-23.7,49.7-63.6,85.9-95.7,127.8c-7.9,0.1-8.5-3.1-4.1-8.5c32.5-74.9,51.8-151.8,37.3-233.7c-3.9-22.2-11.1-43.5-23-63.8
	c44.8,7.4,262,276.1,307.8,381.2c-52.2-18.1-103.3-31.5-156.8-43.3C543,333.6,544.9,320.3,546.1,304.8z"/>
<path class="st0" d="M1036.2,770.5c-59.7-17.3-115-21.7-171.2-16.8c-9.7,0.8-14.5-2.9-16.1-11.8s-2.7-18.1-6-26.4
	c-9.3-23.5-7.6-37.9,21.6-48.5c25.3-9.2,39.7-35.2,54.9-57c8.7-12.4,13.3-16.2,23.2-1C976,659.8,1009.1,710.7,1036.2,770.5z"/>
<path class="st0" d="M820.1,773.8c-91.3-30.1-184-34.5-278.2-33.5c22.1-18.7,48.6-26.2,75.6-32.3c57.8-13.2,117.7-9.4,175.9-19.8
	c7.4-1.3,12.2,0.9,13.7,8.3C812.2,721.3,819.7,745.8,820.1,773.8z"/>
<path class="st0" d="M431.6,344.4c-2.1,5.8-7.7,7-12.7,8.9c-19.6,7.5-35.5,20.9-56.4,36.2c13-66.4,52.5-113.2,85.7-163.6
	C452.8,266.9,445.5,306.1,431.6,344.4z"/>
<path class="st0" d="M483.2,976.9c0-1.8-0.1-3.5-0.1-5.3C486.3,973.3,486.3,975.1,483.2,976.9z"/>
<path class="st0" d="M483.2,976.9c0-1.8-0.1-3.5-0.1-5.3C486.3,973.3,486.3,975.1,483.2,976.9z"/>
<line class="st0" x1="785" y1="513" x2="779.1" y2="510"/>
<text transform="matrix(0.99 0 0 1 1.831055e-04 1035.2002)" class="st0 st1 st2">HUSKY SAILING</text>
</svg>
