<?xml version="1.0" encoding="utf-8"?>
<!-- Generator: Adobe Illustrator 22.0.1, SVG Export Plug-In . SVG Version: 6.00 Build 0)  -->
<svg version="1.1" id="Layer_1" xmlns="http://www.w3.org/2000/svg" xmlns:xlink="http://www.w3.org/1999/xlink" x="0px" y="0px"
	 viewBox="0 0 1279.7 1238.9" style="enable-background:new 0 0 1279.7 1238.9;" xml:space="preserve">
<style type="text/css">
	.st0{fill:#979898;stroke:#231F20;stroke-linecap:round;stroke-miterlimit:10;}
	.st1{fill:#FFFFFF;stroke:#231F20;stroke-width:6;stroke-linecap:round;stroke-miterlimit:10;}
	.st2{fill:none;stroke:#231F20;stroke-linecap:round;stroke-miterlimit:10;}
	.st3{fill:#4C2E82;stroke:#000000;stroke-width:0.75;stroke-miterlimit:10;}
</style>
<title>icon</title>
<path class="st0" d="M560.9,189.8"/>
<path class="st0" d="M540.4,227.6"/>
<path class="st1" d="M1260.3,1017.8c-12.3,74.3-31.6,147.3-57.4,218.1l-1196-2.9c31.6-33.3,72.4-78.5,117-134.3
	c31.7-39.6,79.2-101.8,141-198.8c53-83.1,129-202.2,194.2-351.2c52.1-119,117.4-302.7,146.3-544.8c49.3,13.3,493.6,140,624,492.3
	C1229.4,496.1,1310.4,715.1,1260.3,1017.8z"/>
<path class="st2" d="M150.8,1186.4"/>
<g>
	<g id="_5yrWoI">
		<path d="M443.8,641.3c0.3-38,0.9-76,0.7-114c-0.1-9.5,1.8-11.7,9-11.5c92.4,1.5,184.9,2.4,277.3,3.5c-3.3,35.3-2.1,70.7-1.7,106
			c0.2,17.6-4.2,21.4-16.5,20c-13.5-1.5-27.3,0.4-40.8-1.1c-12.2-1.3-13.7,4.2-11,18.3c20.3,109.2,40.1,218.7,60.1,328
			c0.9,4.8-0.1,11.2,5.3,14c11.9-55.2,23.7-109.9,35.5-164.7c22.8-106.5,45.6-213,68.3-319.5l99.2,1.2l89.5,487.3
			c27.4-116,52.3-231.4,77.5-346.8c2.3-10.7-0.1-13-8-12.8c-15.5,0.5-31.1-0.8-46.6-0.1c-8.5,0.4-11.8-2-11.5-14.4
			c1-37.3,1-74.6,1.3-111.9c67.3,0.8,134.6,1.8,201.9,2.1c8.4,0,11.8,1.4,11.4,14.2c-1.1,37.1-0.9,74.3-1.2,111.5
			c-17,0-34,0.8-51-0.3c-9.2-0.6-12.5,3.7-14.8,14.9c-8.8,44-18.4,87.6-27.6,131.5c-29.8,141.8-59.6,283.6-89.3,425.4l-154.7-1.8
			c-0.2-3.7,0.1-7.6-0.6-11.2c-17.9-97.4-36-194.8-54.1-292.2c-3.2-17-4.5-34.9-11.3-52.8c-13.4,63.2-26.4,123.9-39.1,184.7
			c-11.8,56.5-23.4,113.2-35,169.8l-154.7-1.8c-10.3-57.7-20.4-115.5-30.9-173.2C557,915.3,533.2,787.1,510,658.7
			c-2.3-12.9-6.5-17.1-16.7-16.6C476.8,643.1,460.3,641.7,443.8,641.3z"/>
	</g>
	<path class="st3" d="M457.8,641.3c0.3-38,0.9-76,0.7-114c0-9.5,1.8-11.7,9.1-11.5c92.4,1.5,184.8,2.4,277.3,3.5
		c-3.3,35.3-2.1,70.7-1.7,106c0.2,17.6-4.2,21.4-16.5,20c-13.5-1.5-27.3,0.4-40.8-1.1c-12.2-1.3-13.7,4.2-11,18.3
		c20.3,109.2,40.1,218.7,60.1,328c0.9,4.8-0.1,11.2,5.3,14c11.9-55.2,23.7-109.9,35.5-164.7c22.8-106.5,45.6-213,68.3-319.5
		l99.3,1.2l89.5,487.3c27.4-116,52.3-231.4,77.4-346.8c2.3-10.7-0.1-13-8-12.8c-15.5,0.5-31.1-0.8-46.7-0.1
		c-8.5,0.4-11.8-2-11.5-14.4c1-37.3,1-74.6,1.3-111.9c67.3,0.8,134.6,1.8,201.9,2.1c8.4,0,11.8,1.4,11.4,14.2
		c-1.1,37.1-0.9,74.3-1.2,111.5c-17,0-34,0.8-51-0.3c-9.2-0.6-12.5,3.7-14.8,14.9c-8.8,44-18.4,87.6-27.6,131.5
		c-29.8,141.8-59.6,283.6-89.3,425.4l-154.7-1.8c-0.2-3.7,0.1-7.6-0.6-11.2c-17.9-97.4-36-194.8-54.1-292.2
		c-3.2-17-4.5-34.9-11.3-52.8c-13.4,63.2-26.4,123.9-39.1,184.7c-11.8,56.5-23.4,113.2-35,169.8l-154.7-1.8
		c-10.3-57.7-20.4-115.5-30.9-173.2C571,915.3,547.3,787.1,524,658.7c-2.3-12.9-6.5-17.1-16.7-16.6
		C490.9,643.1,474.3,641.7,457.8,641.3z"/>
</g>
<path class="st2" d="M493.8,1201.7"/>
</svg>
