<?xml version="1.0" encoding="utf-8"?>
<!-- Generator: Adobe Illustrator 22.0.1, SVG Export Plug-In . SVG Version: 6.00 Build 0)  -->
<svg version="1.1" id="Layer_1" xmlns="http://www.w3.org/2000/svg" xmlns:xlink="http://www.w3.org/1999/xlink" x="0px" y="0px"
	 viewBox="0 0 800.6 412" style="enable-background:new 0 0 800.6 412;" xml:space="preserve">
<style type="text/css">
	.st0{fill:#4B2E83;}
	.st1{fill:#FFFFFF;}
	.st2{font-family:'ArialRoundedMTBold';}
	.st3{font-size:18.45px;}
	.st4{letter-spacing:2;}
	.st5{letter-spacing:-1;}
</style>
<title>Artboard 1</title>
<path class="st0" d="M503.4,97.4C470.2,49,427,23.2,399.2,10c-27.7,14.1-69.8,40.9-102.3,89.3c-83,123.7-26.1,273-20,288.4
	c78.3,32.4,166.3,32.4,244.6,0C526.9,374.8,588.6,221.4,503.4,97.4z M505.9,362.1c-68.4,27.7-144.8,27.7-213.1,0
	c-5.4-13.2-54.9-140.8,17.4-246.6c28.3-41.4,65-64.4,89.2-76.4c24.3,11.3,61.9,33.4,90.8,74.7C564.3,219.9,510.6,351.1,505.9,362.1z
	"/>
<path d="M505.9,362.1c-68.4,27.7-144.8,27.7-213.1,0c-5.4-13.2-54.9-140.8,17.4-246.6c28.3-41.4,65-64.4,89.2-76.4
	c24.3,11.3,61.9,33.4,90.8,74.7C564.3,219.9,510.6,351.1,505.9,362.1z"/>
<path class="st1" d="M505.9,362.1c-68.4,27.7-144.8,27.7-213.1,0c-5.4-13.2-54.9-140.8,17.4-246.6c28.3-41.4,65-64.4,89.2-76.4
	c24.3,11.3,61.9,33.4,90.8,74.7C564.3,219.9,510.6,351.1,505.9,362.1z"/>
<rect x="264.5" y="194.5" class="st0" width="272.2" height="89.3"/>
<path class="st0" d="M158.4,388.6v-80.3H0C6.7,253.1,24.1,199.7,51.1,151C96.9,69,158.5,22,192.1,0l9.8,277h47.7v31.3h-47.7v80.3
	H158.4z M158.4,277c0.3-74.7,0.5-149.3,0.8-224c-17.7,20.4-33.8,42.1-48,65c-30.2,48.7-52,102.2-64.5,158.1v0.9L158.4,277z"/>
<text transform="matrix(0.98 0 0 1 271.17 224.4302)" class="st1 st2 st3">THE</text>
<text transform="matrix(0.98 0 0 1 307.7242 224.4302)" class="st1 st2 st3 st4"> </text>
<text transform="matrix(0.98 0 0 1 314.9073 224.4302)" class="st1 st2 st3 st5">P</text>
<text transform="matrix(0.98 0 0 1 325.1974 224.4302)" class="st1 st2 st3">A</text>
<text transform="matrix(0.98 0 0 1 337.5651 224.4302)" class="st1 st2 st3">GE</text>
<text transform="matrix(0.98 0 0 1 363.5841 224.4302)" class="st1 st2 st3 st4"> </text>
<text transform="matrix(0.98 0 0 1 370.7579 224.4302)" class="st1 st2 st3">Y</text>
<text transform="matrix(0.98 0 0 1 381.6456 224.4302)" class="st1 st2 st3">OU</text>
<text transform="matrix(0.98 0 0 1 409.3405 224.4302)" class="st1 st2 st3 st4"> </text>
<text transform="matrix(0.98 0 0 1 416.5138 224.4302)" class="st1 st2 st3">REQUESTED </text>
<text transform="matrix(0.98 0 0 1 297.0812 246.5703)" class="st1 st2 st3">COULD N</text>
<text transform="matrix(0.98 0 0 1 379.8131 246.5703)" class="st1 st2 st3">O</text>
<text transform="matrix(0.98 0 0 1 393.2682 246.5703)" class="st1 st2 st3">T BE FOUND</text>
<path class="st0" d="M642.2,388.6v-80.3h158.4c-6.7-55.3-24.1-108.7-51.1-157.3C703.8,69,642.1,22,608.5,0l-9.8,277H551v31.3h47.7
	v80.3H642.2z M642.2,277c-0.3-74.7-0.5-149.3-0.8-224c17.7,20.4,33.8,42.1,48,65c30.2,48.7,52,102.2,64.5,158.1v0.9L642.2,277z"/>
</svg>
