<?xml version="1.0" encoding="utf-8"?>
<!-- Generator: Adobe Illustrator 22.0.1, SVG Export Plug-In . SVG Version: 6.00 Build 0)  -->
<svg version="1.1" id="Layer_1" xmlns="http://www.w3.org/2000/svg" xmlns:xlink="http://www.w3.org/1999/xlink" x="0px" y="0px"
	 viewBox="0 0 1197.2 1076.7" style="enable-background:new 0 0 1197.2 1076.7;" xml:space="preserve">
<style type="text/css">
	.st0{fill:#85754D;}
	.st1{fill:none;}
</style>
<path class="st0" d="M468.2,277c-36.9,61.8-80.8,119.3-95.3,200.7c23.1-18.8,40.8-35.1,62.6-44.4c5.6-2.3,11.8-3.8,14.1-10.9
	C465.1,375.4,473.2,327.4,468.2,277z M551,414.3c59.5,14.5,116.2,30.9,174.3,53.1C674.3,338.5,432.9,9.1,382.9,0.1
	c13.2,24.9,21.2,51,25.6,78.2c16.1,100.4-5.3,194.7-41.5,286.6c-4.8,6.6-4.2,10.5,4.6,10.4c35.7-51.4,80.1-95.8,106.4-156.7
	c33.4,37.4,26.9,82,28,128.8c28.7-30.2,35.9-66.7,48-102.8c21.3,32,26.8,70.4,22.8,129.1C575.6,392.9,573.5,409.2,551,414.3z
	 M867.1,854L867.1,854c-1.7-9.1-7-11.8-15.2-10.2c-64.7,12.8-131.3,8-195.6,24.3c-30,7.6-59.5,16.7-84.1,39.6
	c104.7-1.2,207.8,4.2,309.3,41.1C881.2,914.6,872.9,884.6,867.1,854z M915.9,795.2c0.1-0.1,0.2-0.1,0.4-0.2c0.3-0.2,0.8-0.5,1.1-0.7
	c0.2-0.1,0.4-0.2,0.6-0.4C917.3,794.2,916.6,794.7,915.9,795.2z M1018,746.7c-11.1-18.6-16.2-14.1-25.8,1.2
	c-16.9,26.7-33,58.7-61,69.9c-32.5,13-34.4,30.7-24,59.5c3.7,10.2,4.8,21.6,6.7,32.4c1.9,10.9,7.1,15.6,17.9,14.5
	c62.5-6,124-0.5,190.4,20.6C1091.8,871.6,1055,809.2,1018,746.7z M1082.9,980.6c-141.7,27.3-285,36.2-428.3,43.7
	c-83.7,4.4-167.5,9.1-251.4,7.4c-77.9,5.5-156,4-234.1,3.2H0c10,7.5,20.2,9.4,30.4,10.3c217.3,19.7,434.8,34.5,652.9,31.1
	c124.6-2,249.1-7,371.2-37.9c38.8-9.8,76.8-22.6,109.9-47.8c14.5-11,27.5-23.7,32.9-47.1C1158.7,963.9,1121,973.1,1082.9,980.6z
	 M397.1,1028.4c2,1,4.1,2.2,6.1,3.1C401.5,1029.9,399.4,1028.8,397.1,1028.4z"/>
<path class="st0" d="M915.9,795.2c0.6-0.4,1.3-0.9,2.1-1.5C917.3,794.2,916.6,794.7,915.9,795.2z M777.2,590c0.4,0.5,0.9,1,1.3,1.6
	C778.1,591.1,777.7,590.6,777.2,590z"/>
<path class="st0" d="M915.9,795.2c0.1-0.1,0.2-0.1,0.4-0.2c0.3-0.2,0.8-0.5,1.1-0.7c0.2-0.1,0.4-0.2,0.6-0.4
	C917.3,794.2,916.6,794.7,915.9,795.2z"/>
<path class="st0" d="M951.2,697.9c-3.9-5.6-8-11-12.6-16.1l-0.2-0.2c-0.1-0.1-0.3-0.2-0.6-0.6c-0.2-0.2-0.3-0.4-0.6-0.6
	c-0.1-0.1-0.2-0.2-0.2-0.2c-0.1-0.2-0.3-0.4-0.4-0.6c-0.1-0.1-0.1-0.2-0.2-0.4c-0.1-0.1-0.1-0.2-0.1-0.4c0-0.1-0.1-0.2-0.1-0.4
	c-0.1-0.2-0.1-0.4-0.2-0.6c0-0.1-0.1-0.2-0.1-0.5c0-0.1,0-0.4-0.1-0.5c-0.1-2,0.4-4,1.6-5.5l28.5-3.4
	C885,549.9,796,439.1,699.6,336.5c-12.2-17.2-26.1-32.5-45.5-42.1c13.3,17.7,26.7,35.4,39.9,53.1c26.2,42.3,50.4,86.1,75.3,129.2
	c28.1,48.9,34.2,112.3,89.7,151.3c-7-2.1-13.3-3.9-19.2-5.8c-10.3-3.3-19-6.3-26.2-9.1c-19.6-7.6-28.8-13.5-32.6-18.3
	c-0.1-0.1-0.2-0.2-0.4-0.5l-0.7-0.9c-0.1-0.1-0.2-0.4-0.4-0.5l-1-1.2l-0.1-0.1c-0.4-0.5-0.9-1-1.3-1.6c-0.4-0.5-0.9-1-1.4-1.5
	l-1.4-1.5c-1-1-2.1-2.1-3.2-3.1l-0.3-0.2l-1.4-1.2l-1.7-1.3c-1.9-1.6-4-3.1-6.1-4.5c-0.4-0.2-0.9-0.6-1.3-0.9
	c-0.4-0.2-0.9-0.6-1.3-0.9c-0.4-0.2-1-0.6-1.6-1s-1.3-0.7-2-1.2c-12.1-7.1-22.2-17.8-29.4-30.8c-14.5-27.6-38.4-38.6-63.7-48.4
	c-73.6-28.2-110.2-10.3-134.5,69.8c-6.8,22.3-14.9,24.8-34.6,21.5c-38.8-6.5-77.3-2.8-113.5,15.6c18,3.9,37,1,55.6,17.5
	c-50.8-0.4-90.1,19.7-125.8,49.8c5.4,0.5,10.3-0.9,15.2-2.2c20.8-6,29.5-3.2,22.9,24.4c-9.2,39.1,9.8,67.3,39.5,88.8
	c7,5,17.6,6.1,21,17.3c-115.4,35.6-193.6,83.4-214.5,131.1c12-0.5,22-10.7,37.6-7.6c-21.7,22.1-44,40.6-61,67.1
	c11.1,3.2,18.8-1.8,26.8-3.9c50.4-13,100.2-32,151.3-37.8c52.5-5.9,83.5-43.7,121.1-74.3l-64.5,16.3c1.3-4.2,1.4-5.3,2-5.9
	c2.4-2.6,5.1-5,7.8-7.2c1.2-1,2.4-1.8,3.6-2.8c1-0.7,2-1.5,3-2.2l2.9-2.2C546.4,776.2,670,806,670,806c35.1,1.2,64.2,5.5,160.6,9.8
	l15.2,0.6c3.2,0.7,6.6,1,9.8,0.9c1.7-0.1,3.3-0.2,5-0.6l18.9-5.4c1.7-0.9,3.3-1.7,4.9-2.3c3-1.3,5.6-2.3,7.4-3.2
	c2.4-1,4.4-1.6,6.3-2.2c3-1,6-2.2,8.9-3.4c0,0,3.9-1.8,8.1-4.4h0.1c0.1-0.1,0.3-0.2,0.4-0.2c-0.1,0.1-0.2,0.1-0.4,0.2
	c0.7-0.5,1.4-1,2.1-1.5c-0.2,0.1-0.4,0.2-0.6,0.4c0.2-0.1,0.3-0.2,0.6-0.4h0.1c7.1-5.4,13.7-11.4,19.8-18
	c15.3-16.6,31.4-39.7,25.2-57.4C961.3,713,956.4,705.1,951.2,697.9z M631.2,555.3c41.9-8,80.2-2.9,106.2,41.3
	C692.9,611.6,662.8,580.8,631.2,555.3z"/>
<path class="st0" d="M1168.8,686.2c-5.7,45.4-12.2,90.5-30.6,139.7c-6.1-31-10.1-55.4-15.8-79.2C1081,572,983,437,858.3,321.7
	c-90.7-83.9-191.8-151.2-300.8-206.5c4.6-9,11.1-4.8,16-4.4c126.8,10.7,250.5,34.9,364.6,98.7
	C1109.5,305.1,1194.5,481.3,1168.8,686.2z"/>
<path class="st0" d="M403.3,1031.6c-2.1-0.9-4.1-2.1-6.1-3.1C399.4,1028.8,401.5,1029.9,403.3,1031.6z"/>
<path class="st0" d="M1197.2,943.4c-5.4,23.4-18.5,36.1-32.9,47.1c-33,25.3-71.1,38-109.9,47.8c-122.1,30.8-246.5,35.9-371.2,37.9
	c-218.2,3.3-435.6-11.4-652.9-31c-10.2-1-20.3-2.8-30.4-10.3h169.2c78.1,0.9,156.1,2.3,234.1-3.2c83.9,1.8,167.7-2.9,251.4-7.4
	c143.3-7.5,286.7-16.4,428.3-43.8C1121,973.1,1158.7,963.9,1197.2,943.4z"/>
<path class="st0" d="M577,373.9c4-58.9-1.4-97.2-22.8-129.1c-12,36.1-19.3,72.6-48,102.8c-1.2-46.7,5.3-91.4-28-128.8
	c-26.4,60.9-70.7,105.3-106.4,156.7c-8.8,0.1-9.5-3.8-4.6-10.4c36.1-91.8,57.6-186.1,41.5-286.6c-4.3-27.2-12.3-53.3-25.6-78.2
	c49.8,9.1,291.3,338.6,342.2,467.4c-58-22.2-114.9-38.6-174.3-53.1C573.5,409.2,575.6,392.9,577,373.9z"/>
<path class="st0" d="M1121.9,944.9c-66.4-21.2-127.9-26.6-190.4-20.6c-10.8,1-16.1-3.6-17.9-14.5s-3-22.2-6.7-32.4
	c-10.3-28.8-8.5-46.5,24-59.5c28.1-11.3,44.1-43.2,61-69.9c9.7-15.2,14.8-19.9,25.8-1.2C1055,809.2,1091.8,871.6,1121.9,944.9z"/>
<path class="st0" d="M881.6,949C780.1,912,677,906.6,572.3,907.9c24.6-22.9,54-32.1,84.1-39.6c64.3-16.2,130.9-11.5,195.6-24.3
	c8.2-1.6,13.6,1.1,15.2,10.2C872.9,884.6,881.2,914.6,881.6,949z"/>
<path class="st0" d="M449.7,422.4c-2.3,7.1-8.6,8.6-14.1,10.9c-21.8,9.2-39.5,25.6-62.7,44.4c14.5-81.4,58.4-138.8,95.3-200.6
	C473.2,327.4,465.1,375.4,449.7,422.4z"/>
<line class="st1" x1="842.6" y1="629.2" x2="836" y2="625.5"/>
</svg>
