<?xml version="1.0" encoding="utf-8"?>
<!-- Generator: Adobe Illustrator 22.0.1, SVG Export Plug-In . SVG Version: 6.00 Build 0)  -->
<svg version="1.1" id="Layer_1" xmlns="http://www.w3.org/2000/svg" xmlns:xlink="http://www.w3.org/1999/xlink" x="0px" y="0px"
	 viewBox="0 0 1197.2 1076.7" style="enable-background:new 0 0 1197.2 1076.7;" xml:space="preserve">
<style type="text/css">
	.st0{fill:#FFFFFF;}
</style>
<title>Artboard 1</title>
<path class="st0" d="M468.3,276.9c-36.9,61.8-80.8,119.3-95.3,200.7c23.1-18.8,40.8-35.1,62.6-44.4c5.6-2.3,11.8-3.8,14.1-10.9
	C465.2,375.3,473.3,327.3,468.3,276.9z M551.1,414.2c59.5,14.5,116.2,30.9,174.3,53.1C674.4,338.4,433,9,383,0
	c13.2,24.9,21.2,51,25.6,78.2c16.1,100.4-5.3,194.7-41.5,286.6c-4.8,6.6-4.2,10.5,4.6,10.4c35.7-51.4,80.1-95.8,106.4-156.7
	c33.4,37.4,26.9,82,28,128.8c28.7-30.2,35.9-66.7,48-102.8c21.3,32,26.8,70.4,22.8,129.1C575.7,392.8,573.6,409.1,551.1,414.2z
	 M867.2,853.9L867.2,853.9c-1.7-9.1-7-11.8-15.2-10.2c-64.7,12.8-131.3,8-195.6,24.3c-30,7.6-59.5,16.7-84.1,39.6
	c104.7-1.2,207.8,4.2,309.3,41.1C881.3,914.5,873,884.5,867.2,853.9z M916,795.1c0.1-0.1,0.2-0.1,0.4-0.2c0.3-0.2,0.8-0.5,1.1-0.7
	c0.2-0.1,0.4-0.2,0.6-0.4C917.4,794.1,916.7,794.6,916,795.1z M1018.1,746.6c-11.1-18.6-16.2-14.1-25.8,1.2
	c-16.9,26.7-33,58.7-61,69.9c-32.5,13-34.4,30.7-24,59.5c3.7,10.2,4.8,21.6,6.7,32.4c1.9,10.9,7.1,15.6,17.9,14.5
	c62.5-6,124-0.5,190.4,20.6C1091.9,871.5,1055.1,809.1,1018.1,746.6z M1083,980.5c-141.7,27.3-285,36.2-428.3,43.7
	c-83.7,4.4-167.5,9.1-251.4,7.4c-77.9,5.5-156,4-234.1,3.2H0.1c10,7.5,20.2,9.4,30.4,10.3c217.3,19.7,434.8,34.5,652.9,31.1
	c124.6-2,249.1-7,371.2-37.9c38.8-9.8,76.8-22.6,109.9-47.8c14.5-11,27.5-23.7,32.9-47.1C1158.8,963.8,1121.1,973,1083,980.5z
	 M397.2,1028.3c2,1,4.1,2.2,6.1,3.1C401.6,1029.8,399.5,1028.7,397.2,1028.3z"/>
<path class="st0" d="M916,795.1c0.6-0.4,1.3-0.9,2.1-1.5C917.4,794.1,916.7,794.6,916,795.1z M777.3,589.9c0.4,0.5,0.9,1,1.3,1.6
	C778.2,591,777.8,590.5,777.3,589.9z"/>
<path class="st0" d="M916,795.1c0.1-0.1,0.2-0.1,0.4-0.2c0.3-0.2,0.8-0.5,1.1-0.7c0.2-0.1,0.4-0.2,0.6-0.4
	C917.4,794.1,916.7,794.6,916,795.1z"/>
<path class="st0" d="M951.3,697.8c-3.9-5.6-8-11-12.6-16.1l-0.2-0.2c-0.1-0.1-0.3-0.2-0.6-0.6c-0.2-0.2-0.3-0.4-0.6-0.6
	c-0.1-0.1-0.2-0.2-0.2-0.2c-0.1-0.2-0.3-0.4-0.4-0.6c-0.1-0.1-0.1-0.2-0.2-0.4c-0.1-0.1-0.1-0.2-0.1-0.4c0-0.1-0.1-0.2-0.1-0.4
	c-0.1-0.2-0.1-0.4-0.2-0.6c0-0.1-0.1-0.2-0.1-0.5c0-0.1,0-0.4-0.1-0.5c-0.1-2,0.4-4,1.6-5.5l28.5-3.4
	c-80.9-118-169.9-228.8-266.3-331.4c-12.2-17.2-26.1-32.5-45.5-42.1c13.3,17.7,26.7,35.4,39.9,53.1c26.2,42.3,50.4,86.1,75.3,129.2
	c28.1,48.9,34.2,112.3,89.7,151.3c-7-2.1-13.3-3.9-19.2-5.8c-10.3-3.3-19-6.3-26.2-9.1c-19.6-7.6-28.8-13.5-32.6-18.3
	c-0.1-0.1-0.2-0.2-0.4-0.5l-0.7-0.9c-0.1-0.1-0.2-0.4-0.4-0.5l-1-1.2l-0.1-0.1c-0.4-0.5-0.9-1-1.3-1.6c-0.4-0.5-0.9-1-1.4-1.5
	l-1.4-1.5c-1-1-2.1-2.1-3.2-3.1l-0.3-0.2l-1.4-1.2l-1.7-1.3c-1.9-1.6-4-3.1-6.1-4.5c-0.4-0.2-0.9-0.6-1.3-0.9
	c-0.4-0.2-0.9-0.6-1.3-0.9c-0.4-0.2-1-0.6-1.6-1s-1.3-0.7-2-1.2c-12.1-7.1-22.2-17.8-29.4-30.8c-14.5-27.6-38.4-38.6-63.7-48.4
	c-73.6-28.2-110.2-10.3-134.5,69.8c-6.8,22.3-14.9,24.8-34.6,21.5c-38.8-6.5-77.3-2.8-113.5,15.6c18,3.9,37,1,55.6,17.5
	c-50.8-0.4-90.1,19.7-125.8,49.8c5.4,0.5,10.3-0.9,15.2-2.2c20.8-6,29.5-3.2,22.9,24.4c-9.2,39.1,9.8,67.3,39.5,88.8
	c7,5,17.6,6.1,21,17.3C292.8,831.5,214.6,879.3,193.7,927c12-0.5,22-10.7,37.6-7.6c-21.7,22.1-44,40.6-61,67.1
	c11.1,3.2,18.8-1.8,26.8-3.9c50.4-13,100.2-32,151.3-37.8c52.5-5.9,83.5-43.7,121.1-74.3L405,886.8c1.3-4.2,1.4-5.3,2-5.9
	c2.4-2.6,5.1-5,7.8-7.2c1.2-1,2.4-1.8,3.6-2.8c1-0.7,2-1.5,3-2.2l2.9-2.2c122.2-90.4,245.8-60.6,245.8-60.6
	c35.1,1.2,64.2,5.5,160.6,9.8l15.2,0.6c3.2,0.7,6.6,1,9.8,0.9c1.7-0.1,3.3-0.2,5-0.6l18.9-5.4c1.7-0.9,3.3-1.7,4.9-2.3
	c3-1.3,5.6-2.3,7.4-3.2c2.4-1,4.4-1.6,6.3-2.2c3-1,6-2.2,8.9-3.4c0,0,3.9-1.8,8.1-4.4h0.1c0.1-0.1,0.3-0.2,0.4-0.2
	c-0.1,0.1-0.2,0.1-0.4,0.2c0.7-0.5,1.4-1,2.1-1.5c-0.2,0.1-0.4,0.2-0.6,0.4c0.2-0.1,0.3-0.2,0.6-0.4h0.1c7.1-5.4,13.7-11.4,19.8-18
	c15.3-16.6,31.4-39.7,25.2-57.4C961.4,712.9,956.5,705,951.3,697.8z M631.3,555.2c41.9-8,80.2-2.9,106.2,41.3
	C693,611.5,662.9,580.7,631.3,555.2z"/>
<path class="st0" d="M1168.9,686.1c-5.7,45.4-12.2,90.5-30.6,139.7c-6.1-31-10.1-55.4-15.8-79.2c-41.4-174.7-139.4-309.7-264.1-425
	c-90.7-83.9-191.8-151.2-300.8-206.5c4.6-9,11.1-4.8,16-4.4c126.8,10.7,250.5,34.9,364.6,98.7C1109.6,305,1194.6,481.2,1168.9,686.1
	z"/>
<path class="st0" d="M403.4,1031.5c-2.1-0.9-4.1-2.1-6.1-3.1C399.5,1028.7,401.6,1029.8,403.4,1031.5z"/>
<path class="st0" d="M1197.2,943.3c-5.4,23.4-18.5,36.1-32.9,47.1c-33,25.3-71.1,38-109.9,47.8c-122.1,30.8-246.5,35.9-371.2,37.9
	c-218.2,3.3-435.6-11.4-652.9-31c-10.2-1-20.3-2.8-30.4-10.3h169.2c78.1,0.9,156.1,2.3,234.1-3.2c83.9,1.8,167.7-2.9,251.4-7.4
	c143.3-7.5,286.7-16.4,428.3-43.8C1121.1,973,1158.8,963.8,1197.2,943.3z"/>
<path class="st0" d="M577.1,373.8c4-58.9-1.4-97.2-22.8-129.1c-12,36.1-19.3,72.6-48,102.8c-1.2-46.7,5.3-91.4-28-128.8
	c-26.4,60.9-70.7,105.3-106.4,156.7c-8.8,0.1-9.5-3.8-4.6-10.4c36.1-91.8,57.6-186.1,41.5-286.6c-4.3-27.2-12.3-53.3-25.6-78.2
	C433,9.3,674.5,338.8,725.4,467.6c-58-22.2-114.9-38.6-174.3-53.1C573.6,409.1,575.7,392.8,577.1,373.8z"/>
<path class="st0" d="M1122,944.8c-66.4-21.2-127.9-26.6-190.4-20.6c-10.8,1-16.1-3.6-17.9-14.5s-3-22.2-6.7-32.4
	c-10.3-28.8-8.5-46.5,24-59.5c28.1-11.3,44.1-43.2,61-69.9c9.7-15.2,14.8-19.9,25.8-1.2C1055.1,809.1,1091.9,871.5,1122,944.8z"/>
<path class="st0" d="M881.7,948.9c-101.5-37-204.6-42.4-309.3-41.1c24.6-22.9,54-32.1,84.1-39.6c64.3-16.2,130.9-11.5,195.6-24.3
	c8.2-1.6,13.6,1.1,15.2,10.2C873,884.5,881.3,914.5,881.7,948.9z"/>
<path class="st0" d="M449.8,422.3c-2.3,7.1-8.6,8.6-14.1,10.9c-21.8,9.2-39.5,25.6-62.7,44.4c14.5-81.4,58.4-138.8,95.3-200.6
	C473.3,327.3,465.2,375.3,449.8,422.3z"/>
<line class="st0" x1="842.7" y1="629.1" x2="836.1" y2="625.4"/>
</svg>
