<?xml version="1.0" encoding="utf-8"?>
<!-- Generator: Adobe Illustrator 22.0.1, SVG Export Plug-In . SVG Version: 6.00 Build 0)  -->
<svg version="1.1" id="Layer_1" xmlns="http://www.w3.org/2000/svg" xmlns:xlink="http://www.w3.org/1999/xlink" x="0px" y="0px"
	 viewBox="0 0 4014.2 303.6" style="enable-background:new 0 0 4014.2 303.6;" xml:space="preserve">
<style type="text/css">
	.st0{fill:#FFFFFF;}
</style>
<g>
	<g>
		<path class="st0" d="M148.5,60.9c-12.5,1.7-15.4,4.6-17.8,17.9c-2.3,12.1-4.6,29.4-11.1,80.5c-6.7,52.5-21.3,83.1-55.6,83.1
			c-25.7,0-50.5-15-41.8-82.5l9.2-71c2.9-23.1,1.9-26-13.4-28l1.3-10.4h58.3l-1.7,10.4c-14.6,2.3-16.1,4-19.4,28.3l-9.2,71.6
			c-5.9,45.6,5.6,61.7,24.6,61.7c20.1,0,31.9-15.9,38.2-67.2c5.8-47.3,7.7-63.8,8.4-76.5c0.8-13-3.6-16.7-18.4-17.9l1.7-10.4h48.5
			L148.5,60.9z"/>
		<path class="st0" d="M283.6,60.9c-12.9,1.2-15.9,6.1-18,17.9c-1.7,9.5-3.6,21.1-7.1,49l-14.6,113.4h-10.7L177.7,93.8l-9,70.1
			c-3.3,24.2-4.4,36.6-5,45.6c-0.8,13.6,3.1,17,17.8,18.5L180,238h-48.5l1.3-10.1c12.1-1.7,16.5-5.2,19.2-17.9
			c1.9-9.5,3.8-21.1,7.3-47.9l9.8-70.4c1.7-12.7,0.6-19.6-2.7-23.9c-2.9-4.3-7.7-6.3-14.6-6.9l1.7-10.4h35.7l52.2,133l7.1-55.4
			c3.8-29.1,4.6-40.7,5.2-48.8c1-14.1-4-17.6-17.5-18.5l1.5-10.4h47.6L283.6,60.9z"/>
		<path class="st0" d="M349.8,60.9c-15.5,1.7-16.5,4-19.4,26.8l-14.6,113.1c-2.9,22.5-1.5,25.1,14.8,26.8l-1.7,10.4h-59.3l1.3-10.4
			c14.6-1.7,16.5-4.3,19.4-26.8l14.8-113.1c3.1-22.8,1.9-25.1-13.8-26.8l1.7-10.4h58.3L349.8,60.9z"/>
		<path class="st0" d="M477,60.9c-12.3,2.3-15.5,4-25.9,28.6c-13.8,32.9-39.9,96.4-61.4,151.5h-9.6c-4.8-54.5-11.7-122.6-15.2-154.4
			c-2.3-21.4-4-23.4-16.5-25.7l1.7-10.4h54.5l-1.9,10.4l-4.2,0.9c-7.5,1.4-9.8,3.5-9,15.3c1.2,16.7,6.5,69.5,10.4,112.8
			c14-33.8,33.2-82.5,42-106.5c5.9-16.4,2.5-19.9-7.5-21.9l-3.6-0.6l1.7-10.4h46.1L477,60.9z"/>
		<path class="st0" d="M543.4,50.5c10,0,19.4,0,26.7-0.3c-1.3,10.4-3.5,34-5,46.2l-7.3,0.9c-0.8-26-3.1-34-15.9-34h-13.2
			c-7.3,0-10.2,1.7-11.7,12.7l-7.3,58.3h15c16.1,0,16.7-3.5,22.3-23.4h7.3l-7.9,60.9H539c0.4-22.2,0.2-24.5-15.7-24.5h-15.7
			l-6.5,52.8c-2.7,20.5-1.2,25.4,10.6,25.4h10.7c10.9,0,15.2-2.3,20-8.7c4.4-5.8,10.4-16.4,14.6-28.6l6.9,4
			c-2.3,10.7-8.6,35.8-11.7,45.9h-98.6l1.5-10.1c15.4-1.7,17.7-4,20.5-26.5l15-114c2.9-22.8,1.3-24.5-14-26.5l1.9-10.4H543.4z"/>
		<path class="st0" d="M688.3,240.3h-3.3c-25.9-0.3-31.7-9.8-37.8-27.7c-3.8-11.5-8.3-29.1-11.5-41.8c-2.5-9.5-4.4-13.8-10.2-13.8
			h-5.4l-5.4,43.9c-2.7,22.2-0.6,24.5,14.2,27.1l-1.5,10.1h-58.3l1.3-10.1c13.6-2,16.9-4.6,19.6-26.8l14.6-114.5
			c3.1-22.8,1-24.2-13.8-25.7l1.7-10.4H645c28.2,0,41.3,18.5,41.3,46.2c0,28-14.6,45-30.1,52.5c3.6,14.7,7.7,28.6,10.9,39.5
			c11.1,34.9,15.7,39,23,42.4L688.3,240.3z M627.1,144.8c20.5,0,32.4-16.2,32.4-47c0-18.8-6.1-34.9-18.6-34.9
			c-5.8,0-8.8,1.2-10.6,15l-8.4,66.9H627.1z"/>
		<path class="st0" d="M706,182.3c1.9,20.8,9.2,47.6,29.4,47.6c12.9,0,20.3-12.7,20.3-30.3c0-15.3-5.8-26.3-15.9-37.2l-6.1-6.9
			c-10.9-12.1-22.6-27.7-22.6-51.9c0-33.8,17.1-57.1,43.4-57.1c15.4,0,28.2,6.1,32.2,8.1c-1.9,11.5-3.1,26.5-4.2,44.7l-7.1,0.9
			c-0.8-18.5-3.8-42.1-22.8-42.1c-12.5,0-19,13.6-19,30.3c0,13.6,4.2,21.9,14.4,32.9l6.5,6.9c13.4,14.4,25.3,29.4,25.3,54.8
			c0,35.8-20.3,59.4-46.2,59.4c-17.3,0-30.3-8.9-35.9-13.3c0.6-6.9,1-21.6,1.5-45.6L706,182.3z"/>
		<path class="st0" d="M866.8,60.9c-15.5,1.7-16.5,4-19.4,26.8l-14.6,113.1c-2.9,22.5-1.5,25.1,14.8,26.8l-1.7,10.4h-59.3l1.3-10.4
			c14.6-1.7,16.5-4.3,19.4-26.8l14.8-113.1c3.1-22.8,1.9-25.1-13.8-26.8l1.7-10.4h58.3L866.8,60.9z"/>
		<path class="st0" d="M986.9,44.4c-2.3,11.8-4.6,35.5-6.3,52.8l-7.5,0.6c0-5.2-0.4-15-1.3-20.5c-1.3-10.1-4.6-14.1-16.9-14.1h-11.1
			l-17.5,138.2c-2.7,21.1-1.7,24.8,16.1,26.5l-1.5,10.1h-62l1.5-10.1c16.3-1.7,17.8-6.1,20.5-26.5l17.8-138.2h-8.1
			c-14.2,0-17.7,3.2-21.7,11.3c-3.1,5.8-5.6,12.4-8.8,22.8l-7.5-0.3c3.6-19,6.9-36.9,8.6-52.5h5.2c2.1,6.1,3.8,6.1,9,6.1h76.2
			c4.8,0,5.4-0.9,9.4-6.1H986.9z"/>
		<path class="st0" d="M1099.5,60.9c-11.3,2.9-14,2.9-22.8,19.9c-6.7,13-18.4,37.2-32.6,69c-2.3,4.9-3.6,9.8-4.2,15l-4.4,34.3
			c-3.1,23.7-2.3,27.1,15,28.9l-1.5,10.1h-60.8l1.5-10.1c15.2-2,17.3-4.6,20.5-28.9l4.8-34.9c0.8-5.8,0.4-9.8-0.8-15
			c-3.1-17.3-7.5-40.1-13-64.1c-4.8-20.5-7.1-22.5-18.6-24.2l1.9-10.4h52l-1.7,10.4l-5.2,1.2c-6.1,1.2-6.9,4.9-5,14.4
			c3.6,18.2,8.1,42.7,13.2,65.2c8.3-18.2,21.5-47.6,28.4-64.1c4-10.1,3.1-14.1-4.8-15.6l-5.8-0.9l2.1-10.7h43.8L1099.5,60.9z"/>
		<path class="st0" d="M1211.2,153.5c0,29.7-9.2,60.3-27.8,76.5c-7.3,6.6-16.5,11.5-26.1,11.5c-23,0-29.2-26-29.2-47.3
			c0-41,15.7-69.8,35.3-81.9c6.3-3.8,13.4-5.8,19.2-5.8C1201.8,106.5,1211.2,125.5,1211.2,153.5z M1153.3,195.9
			c0,22.2,4.6,32.6,11.9,32.6c13.2,0,21.1-41.5,21.1-77c0-22.5-4.6-32.3-11.5-32.3C1157.9,119.2,1153.3,174.8,1153.3,195.9z"/>
		<path class="st0" d="M1242.3,109.9c3.6-23.4,8.4-37.8,17.7-51.4c11.1-15.9,22.1-22.8,30.7-22.8c10.4,0,14.8,6.1,14.8,13
			c0,6.1-5,16.4-7.9,19c-1.9,1.4-3.3,2-5-0.9c-5.4-9.5-10.2-14.7-13.6-14.7c-4.4,0-7.9,3.2-13.4,57.7h20.5l-4.2,12.7
			c-3.1,0.6-14.2,1.7-17.7,1.7c-2.9,26-5.2,49.6-10.2,87.4c-6.3,47.3-17.3,64.6-30.5,80.8c-8.1,10.4-16.3,15-21.3,15
			c-7.3,0-13.6-6.9-13.2-14.4c0-6.9,3.8-15.6,7.1-19.3c1.5-1.7,2.7-1.7,3.6-0.6c5.4,6.9,11.9,13,15.7,13c8.1,0,9-19,14.2-66.1
			c4.4-39.2,7.3-64.6,10.6-95.8h-15l-1-3.2l5.9-11.3H1242.3z"/>
		<path class="st0" d="M1501.9,60.9c-11.9,2.6-15,4.3-23,28.3c-10.4,30-24.9,74.7-50.1,152.1h-9.8l-13.6-130.7l-43.2,130.7h-9.6
			l-10.6-153.5c-1.5-21.9-2.5-25.1-16.3-26.8l1.5-10.4h53.9l-1.7,10.4l-4.2,1.2c-7.9,2-9.6,3.5-8.8,19.6l5.4,102.1l43.4-131.6h9
			l13.4,133c12.5-36.6,23.4-73.9,30.3-98.1c5.9-20.8,3.8-23.9-7.7-25.7l-3.3-0.6l1.7-10.4h45.1L1501.9,60.9z"/>
		<path class="st0" d="M1596,238h-55.3l1.7-10.1c13.4-2,13.8-5.8,12.7-19.3c-1-9.8-2.1-20.5-3.3-32h-36.3
			c-3.6,10.1-8.3,21.4-11.5,31.7c-4,12.7-3.6,17,12.7,19.6l-1.5,10.1H1468l1.7-10.1c14.4-2.9,16.3-4.9,27.2-32.9l55.8-145.1l9.2-2
			c7.7,71.3,13.2,115.7,17.3,151.5c2.5,22.8,3.6,26,18.6,28.6L1596,238z M1544,98.1h-0.4c-7.5,21.4-15.9,43.6-23.2,64.1h30.1
			L1544,98.1z"/>
		<path class="st0" d="M1610.2,182.3c1.9,20.8,9.2,47.6,29.4,47.6c12.9,0,20.3-12.7,20.3-30.3c0-15.3-5.8-26.3-15.9-37.2l-6.1-6.9
			c-10.9-12.1-22.6-27.7-22.6-51.9c0-33.8,17.1-57.1,43.4-57.1c15.4,0,28.2,6.1,32.2,8.1c-1.9,11.5-3.1,26.5-4.2,44.7l-7.1,0.9
			c-0.8-18.5-3.8-42.1-22.8-42.1c-12.5,0-19,13.6-19,30.3c0,13.6,4.2,21.9,14.4,32.9l6.5,6.9c13.4,14.4,25.3,29.4,25.3,54.8
			c0,35.8-20.3,59.4-46.2,59.4c-17.3,0-30.3-8.9-35.9-13.3c0.6-6.9,1-21.6,1.5-45.6L1610.2,182.3z"/>
		<path class="st0" d="M1847.2,60.9c-15.5,1.4-16.3,4.3-19.2,26.5l-14.8,113.7c-2.9,22.5-0.8,24.5,14.8,26.5l-1.3,10.4h-59.5
			l1.5-10.4c15-1.7,16.5-4.6,19.4-27.1l7.1-55.1h-51.2l-7.1,55.7c-2.7,21.9-1,24.8,15,26.5l-1.7,10.4h-59.3l1.3-10.4
			c14.6-2,16.7-4.3,19.4-26.5l14.8-113.7c3.1-22.8,1.7-24.8-13.8-26.5l1.5-10.4h58.5l-1.5,10.4c-15.4,1.7-16.7,4.3-19.6,26.5
			l-5.4,44.1h51l5.6-44.1c2.9-22.2,1.9-24.8-14-26.5l1.9-10.4h58.3L1847.2,60.9z"/>
		<path class="st0" d="M1918.7,60.9c-15.5,1.7-16.5,4-19.4,26.8l-14.6,113.1c-2.9,22.5-1.5,25.1,14.8,26.8l-1.7,10.4h-59.3l1.3-10.4
			c14.6-1.7,16.5-4.3,19.4-26.8L1874,87.7c3.1-22.8,1.9-25.1-13.8-26.8l1.7-10.4h58.3L1918.7,60.9z"/>
		<path class="st0" d="M2060.4,60.9c-12.9,1.2-15.9,6.1-18,17.9c-1.7,9.5-3.6,21.1-7.1,49l-14.6,113.4h-10.7l-55.5-147.4l-9,70.1
			c-3.3,24.2-4.4,36.6-5,45.6c-0.8,13.6,3.1,17,17.8,18.5l-1.5,10.1h-48.5l1.3-10.1c12.1-1.7,16.5-5.2,19.2-17.9
			c1.9-9.5,3.8-21.1,7.3-47.9l9.8-70.4c1.7-12.7,0.6-19.6-2.7-23.9c-2.9-4.3-7.7-6.3-14.6-6.9l1.7-10.4h35.7l52.2,133l7.1-55.4
			c3.8-29.1,4.6-40.7,5.2-48.8c1-14.1-4-17.6-17.5-18.5l1.5-10.4h47.6L2060.4,60.9z"/>
		<path class="st0" d="M2166.1,103.9c-0.4-37.2-13.8-44.4-27.8-44.4c-28,0-51.2,42.1-51.2,101.3c0,46.2,12.7,69.2,32.4,69.2
			c7.9,0,14.8-4.3,16.9-21.1l2.9-22.2c2.7-21.6,0.8-22.8-17.7-25.7l1.7-10.1h57.2l-1.5,10.4c-10.6,1.7-11.7,3.5-14.4,25.4l-2.7,22.5
			c-1.2,8.7-1.3,16.4-1.2,21.9c-10.9,4.6-26.3,11.3-41.6,11.3c-36.8,0-60.4-30-60.4-82.8c0-68.1,35.3-113.1,82.1-113.1
			c16.3,0,30.1,4.6,37.8,6.9c-1.5,9.8-3.5,28.9-5,49.3L2166.1,103.9z"/>
		<path class="st0" d="M2310.4,44.4c-2.3,11.8-4.6,35.5-6.3,52.8l-7.5,0.6c0-5.2-0.4-15-1.3-20.5c-1.3-10.1-4.6-14.1-16.9-14.1
			h-11.1l-17.5,138.2c-2.7,21.1-1.7,24.8,16.1,26.5l-1.5,10.1h-62l1.5-10.1c16.3-1.7,17.8-6.1,20.5-26.5l17.8-138.2h-8.1
			c-14.2,0-17.7,3.2-21.7,11.3c-3.1,5.8-5.6,12.4-8.8,22.8l-7.5-0.3c3.6-19,6.9-36.9,8.6-52.5h5.2c2.1,6.1,3.8,6.1,9,6.1h76.2
			c4.8,0,5.4-0.9,9.4-6.1H2310.4z"/>
		<path class="st0" d="M2434.9,128.1c0,63.5-30.9,114.3-71.4,114.3c-31.9,0-53-30.9-53-81.4c0-58.9,29.6-114.5,71.6-114.5
			C2414.8,46.5,2434.9,78.8,2434.9,128.1z M2339,169.7c0,36.1,7.7,60,25.9,60c26.5,0,41.6-58.3,41.6-109.6
			c0-38.7-6.9-60.9-25.5-60.9C2356.2,59.1,2339,114.3,2339,169.7z"/>
		<path class="st0" d="M2587.5,60.9c-12.9,1.2-15.9,6.1-18,17.9c-1.7,9.5-3.6,21.1-7.1,49l-14.6,113.4H2537l-55.5-147.4l-9,70.1
			c-3.3,24.2-4.4,36.6-5,45.6c-0.8,13.6,3.1,17,17.8,18.5l-1.5,10.1h-48.5l1.3-10.1c12.1-1.7,16.5-5.2,19.2-17.9
			c1.9-9.5,3.8-21.1,7.3-47.9l9.8-70.4c1.7-12.7,0.6-19.6-2.7-23.9c-2.9-4.3-7.7-6.3-14.6-6.9l1.7-10.4h35.7l52.2,133l7.1-55.4
			c3.8-29.1,4.6-40.7,5.2-48.8c1-14.1-4-17.6-17.5-18.5l1.5-10.4h47.6L2587.5,60.9z"/>
		<path class="st0" d="M2632.8,182.3c1.9,20.8,9.2,47.6,29.4,47.6c12.9,0,20.3-12.7,20.3-30.3c0-15.3-5.8-26.3-15.9-37.2l-6.1-6.9
			c-10.9-12.1-22.6-27.7-22.6-51.9c0-33.8,17.1-57.1,43.4-57.1c15.4,0,28.2,6.1,32.2,8.1c-1.9,11.5-3.1,26.5-4.2,44.7l-7.1,0.9
			c-0.8-18.5-3.8-42.1-22.8-42.1c-12.5,0-19,13.6-19,30.3c0,13.6,4.2,21.9,14.4,32.9l6.5,6.9c13.4,14.4,25.3,29.4,25.3,54.8
			c0,35.8-20.3,59.4-46.2,59.4c-17.3,0-30.3-8.9-35.9-13.3c0.6-6.9,1-21.6,1.5-45.6L2632.8,182.3z"/>
		<path class="st0" d="M2828.7,238h-55.3l1.7-10.1c13.4-2,13.8-5.8,12.7-19.3c-1-9.8-2.1-20.5-3.3-32h-36.3
			c-3.6,10.1-8.3,21.4-11.5,31.7c-4,12.7-3.6,17,12.7,19.6l-1.5,10.1h-47.2l1.7-10.1c14.4-2.9,16.3-4.9,27.2-32.9l55.8-145.1l9.2-2
			c7.7,71.3,13.2,115.7,17.3,151.5c2.5,22.8,3.6,26,18.6,28.6L2828.7,238z M2776.7,98.1h-0.4c-7.5,21.4-15.9,43.6-23.2,64.1h30.1
			L2776.7,98.1z"/>
		<path class="st0" d="M2906.4,60.9c-15.5,1.7-16.5,4-19.4,26.8l-14.6,113.1c-2.9,22.5-1.5,25.1,14.8,26.8l-1.7,10.4h-59.3l1.3-10.4
			c14.6-1.7,16.5-4.3,19.4-26.8l14.8-113.1c3.1-22.8,1.9-25.1-13.8-26.8l1.7-10.4h58.3L2906.4,60.9z"/>
		<path class="st0" d="M3006.2,188.4c-2.1,11-9.6,39.8-13.2,49.6h-95.2l1.3-10.1c14.8-1.7,16.5-4.3,19.4-26.8l15-115.7
			c2.7-20.5,1-22.8-14-24.5l1.7-10.4h58.7l-1.3,10.4c-15.7,1.4-17.3,4.3-19.8,24.8L2944,198.8c-2.7,21.9-1.5,26.5,9.6,26.5h9.8
			c8.3,0,14.4-1.4,20.5-9.8c4.6-6.6,11.5-20.2,15.4-30.9L3006.2,188.4z"/>
		<path class="st0" d="M3088.7,60.9c-15.5,1.7-16.5,4-19.4,26.8l-14.6,113.1c-2.9,22.5-1.5,25.1,14.8,26.8l-1.7,10.4h-59.3l1.3-10.4
			c14.6-1.7,16.5-4.3,19.4-26.8L3044,87.7c3.1-22.8,1.9-25.1-13.8-26.8l1.7-10.4h58.3L3088.7,60.9z"/>
		<path class="st0" d="M3230.3,60.9c-12.9,1.2-15.9,6.1-18,17.9c-1.7,9.5-3.6,21.1-7.1,49l-14.6,113.4h-10.7l-55.5-147.4l-9,70.1
			c-3.3,24.2-4.4,36.6-5,45.6c-0.8,13.6,3.1,17,17.8,18.5l-1.5,10.1h-48.5l1.3-10.1c12.1-1.7,16.5-5.2,19.2-17.9
			c1.9-9.5,3.8-21.1,7.3-47.9l9.8-70.4c1.7-12.7,0.6-19.6-2.7-23.9c-2.9-4.3-7.7-6.3-14.6-6.9l1.7-10.4h35.7l52.2,133l7.1-55.4
			c3.8-29.1,4.6-40.7,5.2-48.8c1-14.1-4-17.6-17.5-18.5l1.5-10.4h47.6L3230.3,60.9z"/>
		<path class="st0" d="M3336.1,103.9c-0.4-37.2-13.8-44.4-27.8-44.4c-28,0-51.2,42.1-51.2,101.3c0,46.2,12.7,69.2,32.4,69.2
			c7.9,0,14.8-4.3,16.9-21.1l2.9-22.2c2.7-21.6,0.8-22.8-17.7-25.7l1.7-10.1h57.2l-1.5,10.4c-10.6,1.7-11.7,3.5-14.4,25.4l-2.7,22.5
			c-1.2,8.7-1.3,16.4-1.2,21.9c-10.9,4.6-26.3,11.3-41.6,11.3c-36.8,0-60.4-30-60.4-82.8c0-68.1,35.3-113.1,82.1-113.1
			c16.3,0,30.1,4.6,37.8,6.9c-1.5,9.8-3.5,28.9-5,49.3L3336.1,103.9z"/>
		<path class="st0" d="M3523,44.4c-2.3,11.8-4.6,35.5-6.3,52.8l-7.5,0.6c0-5.2-0.4-15-1.3-20.5c-1.3-10.1-4.6-14.1-16.9-14.1h-11.1
			l-17.5,138.2c-2.7,21.1-1.7,24.8,16.1,26.5l-1.5,10.1h-62l1.5-10.1c16.3-1.7,17.8-6.1,20.5-26.5l17.8-138.2h-8.1
			c-14.2,0-17.7,3.2-21.7,11.3c-3.1,5.8-5.6,12.4-8.8,22.8l-7.5-0.3c3.6-19,6.9-36.9,8.6-52.5h5.2c2.1,6.1,3.8,6.1,9,6.1h76.2
			c4.8,0,5.4-0.9,9.4-6.1H3523z"/>
		<path class="st0" d="M3599.5,50.5c10,0,19.4,0,26.7-0.3c-1.3,10.4-3.5,34-5,46.2l-7.3,0.9c-0.8-26-3.1-34-15.9-34h-13.2
			c-7.3,0-10.2,1.7-11.7,12.7l-7.3,58.3h15c16.1,0,16.7-3.5,22.3-23.4h7.3l-7.9,60.9h-7.3c0.4-22.2,0.2-24.5-15.7-24.5h-15.7
			l-6.5,52.8c-2.7,20.5-1.2,25.4,10.6,25.4h10.7c10.9,0,15.2-2.3,20-8.7c4.4-5.8,10.4-16.4,14.6-28.6l6.9,4
			c-2.3,10.7-8.6,35.8-11.7,45.9h-98.6l1.5-10.1c15.4-1.7,17.7-4,20.5-26.5l15-114c2.9-22.8,1.3-24.5-14-26.5l1.9-10.4H3599.5z"/>
		<path class="st0" d="M3740.6,238h-55.3l1.7-10.1c13.4-2,13.8-5.8,12.7-19.3c-1-9.8-2.1-20.5-3.3-32h-36.3
			c-3.6,10.1-8.3,21.4-11.5,31.7c-4,12.7-3.6,17,12.7,19.6l-1.5,10.1h-47.2l1.7-10.1c14.4-2.9,16.3-4.9,27.2-32.9l55.8-145.1l9.2-2
			c7.7,71.3,13.2,115.7,17.3,151.5c2.5,22.8,3.6,26,18.6,28.6L3740.6,238z M3688.6,98.1h-0.4c-7.5,21.4-15.9,43.6-23.2,64.1h30.1
			L3688.6,98.1z"/>
		<path class="st0" d="M3911,60.9c-13.2,2.3-15.9,3.5-17.8,23.4c-4,43-6.3,75.6-9.2,113.4c-1.9,26-0.8,28.3,14,30.3l-1.5,10.1H3840
			l1.7-10.1c13-2,14.6-4.3,17.3-30c4-41,7.1-75.6,10.7-112.8c0,0-0.4,0-0.6,0c-19.2,50.5-38.4,102.4-56.8,152.9h-5.9
			c-5.2-47.3-12.5-99.5-19-152.6h-0.8l-11.7,70.4c-4.6,28-6.9,44.4-7.5,51.4c-1.7,15.9,1.7,19,15.5,20.8l-1.5,10.1h-48.4l1.7-10.1
			c13-1.4,15.9-5.5,19.6-19.3c2.3-8.7,5.4-22.5,10.4-50.2l11.9-65.8c4.6-25.4,4.4-29.4-13-31.7l2.3-10.4h39
			c5.8,39.5,14.6,91.8,19.4,127.8l49.1-127.8h39.7L3911,60.9z"/>
	</g>
</g>
</svg>
